<?xml version="1.0" encoding="iso-8859-1"?>
<!-- Generator: Adobe Illustrator 19.0.0, SVG Export Plug-In . SVG Version: 6.00 Build 0)  -->
<svg version="1.1" id="Capa_1" xmlns="http://www.w3.org/2000/svg" xmlns:xlink="http://www.w3.org/1999/xlink" x="0px" y="0px"
	 viewBox="0 0 511.21 511.21" style="enable-background:new 0 0 511.21 511.21;" xml:space="preserve">
<g>
	<ellipse style="fill:#F3705A;" cx="100.579" cy="199.743" rx="20.267" ry="38.4"/>
	<ellipse style="fill:#F3705A;" cx="163.513" cy="215.743" rx="30.933" ry="61.867"/>
</g>
<g>
	<path style="fill:#66C6B9;" d="M81.379,368.276c-6.4-50.133-12.8-93.867-17.067-97.067c0,0-35.2-3.2-43.733,2.133
		c-8.533,5.333-11.733,32-13.867,51.2c-1.067,9.6-4.267,26.667-6.4,43.733H81.379z"/>
	<path style="fill:#66C6B9;" d="M255.246,368.276L255.246,368.276c-5.333-19.2-9.6-39.467-13.867-62.933
		s-11.733-23.467-11.733-23.467l-19.2,8.533v2.133c3.2,4.267,9.6,38.4,14.933,74.667h29.867V368.276z"/>
	<path style="fill:#66C6B9;" d="M217.913,364.01c0,1.067,1.067,3.2,1.067,4.267h20.267c-1.067-16-2.133-28.8-4.267-33.067
		c-5.333-13.867-9.6-41.6-6.4-52.267c0,0-50.133-19.2-56.533-23.467l4.267,18.133C177.379,277.61,209.379,337.343,217.913,364.01z"
		/>
</g>
<path style="fill:#FFD15C;" d="M172.046,252.01l-6.4-11.733v-19.2c0,0,17.067-17.067,18.133-48c1.067-32-8.533-55.467-13.867-64
	s-34.133-14.933-34.133-14.933l-28.8,10.667l-18.133,22.4c0,0-3.2,52.267,9.6,78.933v17.067l-2.133,32
	c0,0,23.467,21.333,29.867,25.6c6.4,3.2,25.6,2.133,27.733,4.267l20.267,29.867v-35.2L172.046,252.01z"/>
<path style="fill:#E8EAE9;" d="M227.513,368.276v-1.067c-6.4-22.4-28.8-62.933-28.8-62.933l-24.533-36.267l1.067,46.933
	c0,0-19.2-26.667-20.267-29.867c-2.133-2.133-6.4-1.067-6.4-1.067c-10.667,2.133-39.467-9.6-39.467-9.6l-8.533,42.667l14.933,51.2
	L227.513,368.276L227.513,368.276z"/>
<path style="fill:#66C6B9;" d="M52.579,290.41c10.667,24.533,16,51.2,16,67.2c0,2.133,0,5.333,0,10.667h86.4
	c-33.067-86.4-61.867-123.733-62.933-131.2c0,0-14.933,20.267-21.333,23.467c-6.4,3.2-24.533,6.4-33.067,9.6
	c-4.267,1.067-9.6,3.2-12.8,4.267C31.246,271.21,44.046,272.276,52.579,290.41z"/>
<g>
	<path style="fill:#FFFFFF;" d="M99.513,222.143l-14.933,21.333c0,0,3.2,11.733,3.2,22.4c0,10.667,1.067,22.4,1.067,22.4
		s24.533-2.133,32-7.467c0,0,2.133,6.4,13.867,5.333c10.667-1.067,14.933-4.267,20.267-1.067c0,0-4.267-3.2-13.867-4.267
		c-9.6-1.067-13.867-2.133-16-4.267C122.979,274.41,100.579,236.01,99.513,222.143z"/>
	<path style="fill:#FFFFFF;" d="M165.646,240.276c0,0,11.733,19.2,18.133,26.667c6.4,7.467,16,17.067,18.133,17.067
		c0,0-5.333,1.067-11.733-3.2s-6.4-5.333-6.4-5.333s-3.2,4.267-5.333,14.933c-2.133,10.667-3.2,23.467-3.2,23.467
		s-5.333-16-6.4-25.6C167.779,278.676,166.713,260.543,165.646,240.276z"/>
</g>
<path style="fill:#F3705A;" d="M137.913,108.01c0,0-25.6-3.2-33.067,10.667c-7.467,13.867-13.867,61.867-12.8,83.2
	c2.133,21.333,7.467,42.667,21.333,57.6c0,0-11.733-1.067-23.467-7.467c0,0,5.333,10.667,10.667,13.867
	c0,0-22.4,1.067-34.133-21.333s-8.533-75.733,0-102.4s22.4-56.533,62.933-65.067s54.4,46.933,57.6,60.8
	c4.267,13.867,9.6,50.133,12.8,65.067s-2.133,52.267-20.267,71.467c0,0,5.333-9.6,6.4-23.467c0,0-13.867,27.733-13.867,42.667
	c0,0-5.333-30.933,0-53.333c5.333-22.4,12.8-60.8,9.6-78.933C179.513,145.343,172.046,106.943,137.913,108.01z"/>
<path style="fill:#FFD15C;" d="M398.179,146.41c0,0,2.133-10.667-3.2-19.2v-14.933c0,0,5.333-24.533,3.2-48
	c-2.133-23.467,1.067-37.333-8.533-45.867s-41.6-11.733-53.333-8.533c-11.733,3.2-23.467,8.533-25.6,12.8
	c-2.133,5.333-2.133,49.067-2.133,49.067s-2.133,39.467,19.2,67.2l3.2,14.933c0,0,3.2,12.8,7.467,20.267
	c4.267,7.467,16,17.067,16,17.067S394.979,160.276,398.179,146.41z"/>
<path style="fill:#F7B64C;" d="M352.313,163.476c8.533,3.2,20.267,3.2,32,2.133c7.467-7.467,12.8-13.867,13.867-18.133
	c0,0,2.133-10.667-3.2-19.2v-14.933c0,0-10.667,24.533-26.667,34.133c-16,9.6-34.133,4.267-41.6-8.533
	C326.713,138.943,333.113,154.943,352.313,163.476z"/>
<path style="fill:#8AD7F8;" d="M503.779,368.276c2.133-22.4,4.267-41.6,4.267-50.133c1.067-24.533,4.267-86.4,2.133-114.133
	c-3.2-26.667-13.867-25.6-13.867-25.6l-38.4,7.467l-13.867,182.4H503.779z"/>
<path style="fill:#E8EAE9;" d="M415.246,368.276l11.733-177.067l-74.667-5.333l-20.267-4.267c0,0-36.267,67.2-42.667,98.133
	c-3.2,12.8-3.2,50.133-4.267,88.533H415.246z"/>
<path style="fill:#8AD7F8;" d="M277.646,368.276h19.2c0-13.867,1.067-26.667,2.133-35.2c2.133-26.667,9.6-85.333,14.933-101.333
	c5.333-16,20.267-53.333,20.267-53.333l-1.067-7.467l-41.6,25.6c-2.133,1.067-4.267,3.2-5.333,4.267
	c-9.6,12.8-7.467,29.867-10.667,68.267C272.313,303.21,277.646,333.076,277.646,368.276z"/>
<path style="fill:#F3705A;" d="M350.179,368.276v-6.4c0,0,5.333-91.733,7.467-109.867c2.133-19.2-3.2-33.067-3.2-33.067
	l-2.133-4.267c-3.2-5.333-13.867,0-13.867,0s-3.2,14.933-9.6,30.933c-6.4,14.933-11.733,26.667-14.933,43.733
	c-1.067,8.533-4.267,45.867-5.333,80h41.6V368.276z"/>
<path style="fill:#F05540;" d="M369.379,202.943c0,0-12.8,8.533-13.867,16c-5.333-4.267-10.667-5.333-17.067-4.267v-4.267v-26.667
	c0,0,9.6-3.2,14.933,2.133c5.333,5.333,5.333,5.333,5.333,5.333L369.379,202.943z"/>
<path style="fill:#FFFFFF;" d="M396.046,127.21c0,0,4.267,8.533,0,13.867c-4.267,5.333-40.533,39.467-42.667,44.8l18.133,28.8
	c0,0,33.067-38.4,37.333-46.933c4.267-8.533,2.133-22.4,2.133-22.4S401.379,130.41,396.046,127.21z"/>
<path style="fill:#8AD7F8;" d="M457.913,368.276l5.333-52.267c0,0-11.733-54.4,8.533-91.733
	c20.267-38.4,23.467-46.933,23.467-46.933s-53.333-19.2-68.267-23.467c-14.933-5.333-16-14.933-25.6-20.267
	c0,0,4.267,9.6,1.067,19.2c-3.2,8.533-22.4,52.267-29.867,72.533c-6.4,20.267-24.533,90.667-26.667,125.867
	c0,5.333,0,10.667,1.067,17.067H457.913z"/>
<path style="fill:#FFFFFF;" d="M352.313,185.876c0,0-7.467-6.4-10.667,5.333s-4.267,19.2-4.267,19.2s-11.733-44.8-7.467-56.533
	c0,0,1.067,8.533,6.4,14.933C341.646,176.276,351.246,180.543,352.313,185.876z"/>
<g>
	
		<ellipse transform="matrix(0.1459 -0.9893 0.9893 0.1459 253.8269 473.8119)" style="fill:#FFD15C;" cx="401.32" cy="89.903" rx="16" ry="8.533"/>
	
		<ellipse transform="matrix(0.1459 0.9893 -0.9893 0.1459 348.3458 -233.6268)" style="fill:#FFD15C;" cx="309.477" cy="84.93" rx="16" ry="8.533"/>
</g>
<path style="fill:#415A6B;" d="M394.979,89.876h3.2c0,0,1.067-10.667,5.333-17.067c4.267-6.4,14.933-46.933-18.133-65.067
	c-32-18.133-67.2,0-73.6,9.6c-6.4,9.6-8.533,30.933-8.533,38.4s3.2,28.8,3.2,33.067h2.133c0,0,0-17.067,5.333-27.733
	c5.333-10.667-2.133-20.267,3.2-29.867c6.4-9.6,7.467-9.6,17.067-6.4c9.6,3.2,29.867,3.2,36.267-1.067
	c6.4-4.267,22.4,1.067,22.4,13.867c0,13.867-5.333,16-2.133,20.267C393.913,63.21,398.179,78.143,394.979,89.876z"/>
<rect x="209.379" y="312.81" style="fill:#F7B64C;" width="92.8" height="140.8"/>
<g>
	<path style="fill:#FFD15C;" d="M314.979,287.21c0,0-10.667,80-59.733,80s-55.467-64-55.467-70.4c0-6.4-8.533-49.067,5.333-78.933
		c13.867-29.867,65.067-34.133,86.4-23.467c21.333,10.667,26.667,13.867,27.733,28.8
		C321.379,238.143,319.246,276.543,314.979,287.21z"/>
	<path style="fill:#FFD15C;" d="M332.046,280.81c-1.067,12.8-7.467,22.4-13.867,22.4s-10.667-9.6-8.533-22.4
		c1.067-12.8,7.467-22.4,13.867-22.4S333.113,268.01,332.046,280.81z"/>
	<path style="fill:#FFD15C;" d="M179.513,280.81c1.067,12.8,7.467,22.4,13.867,22.4c6.4,0,10.667-9.6,8.533-22.4
		c-1.067-12.8-7.467-22.4-13.867-22.4S178.446,268.01,179.513,280.81z"/>
</g>
<path style="fill:#415A6B;" d="M324.579,268.01c-7.467,13.867-9.6,19.2-9.6,19.2s3.2-33.067-5.333-45.867
	c-4.267-6.4-3.2-13.867-3.2-19.2c0-7.467-6.4-12.8-13.867-11.733c-22.4,4.267-44.8,4.267-67.2,0
	c-7.467-1.067-13.867,4.267-13.867,11.733c0,6.4-3.2,12.8-8.533,19.2c-7.467,10.667-6.4,34.133-5.333,42.667
	c-1.067-4.267-4.267-8.533-7.467-11.733c-7.467-8.533-11.733-19.2-9.6-30.933l0,0c2.133-11.733,7.467-41.6,19.2-52.267
	c11.733-10.667,39.467-34.133,74.667-23.467c35.2,9.6,54.4,53.333,56.533,66.133C334.179,243.476,332.046,254.143,324.579,268.01z"
	/>
<polygon style="fill:#E8EAE9;" points="325.646,511.21 325.646,390.676 213.646,390.676 202.979,511.21 "/>
<polygon style="fill:#F3705A;" points="269.113,429.076 281.913,417.343 255.246,390.676 228.579,417.343 241.379,429.076 "/>
<polygon style="fill:#F05540;" points="280.846,511.21 269.113,429.076 241.379,429.076 229.646,511.21 "/>
<g>
	<path style="fill:#344A5E;" d="M279.779,511.21h125.867v-92.8c0-19.2-12.8-36.267-32-41.6l-56.533-16l1.067,14.933
		C319.246,375.743,297.913,442.943,279.779,511.21z"/>
	<path style="fill:#344A5E;" d="M230.713,511.21c-18.133-68.267-39.467-135.467-39.467-135.467l1.067-14.933l-56.533,16
		c-18.133,5.333-32,22.4-32,41.6v92.8H230.713z"/>
</g>
<path style="fill:#FFFFFF;" d="M303.246,341.61c0,0-1.067-5.333-2.133-5.333c0,0,0,17.067-8.533,23.467
	c-8.533,7.467-38.4,30.933-38.4,30.933l27.733,48l30.933-65.067L303.246,341.61"/>
<path style="fill:#415A6B;" d="M298.979,511.21c20.267-44.8,44.8-100.267,44.8-100.267l-19.2-14.933h18.133l-39.467-54.4
	c-3.2,36.267-17.067,100.267-33.067,169.6H298.979z"/>
<path style="fill:#FFFFFF;" d="M206.179,341.61l2.133-1.067c0,0,0,12.8,8.533,20.267s38.4,30.933,38.4,30.933l-27.733,48
	l-29.867-67.2C197.646,372.543,197.646,352.276,206.179,341.61"/>
<path style="fill:#415A6B;" d="M211.513,511.21h27.733c-16-69.333-29.867-132.267-33.067-169.6l-39.467,54.4h19.2l-19.2,14.933
	C166.713,410.943,191.246,466.41,211.513,511.21z"/>
<g>
</g>
<g>
</g>
<g>
</g>
<g>
</g>
<g>
</g>
<g>
</g>
<g>
</g>
<g>
</g>
<g>
</g>
<g>
</g>
<g>
</g>
<g>
</g>
<g>
</g>
<g>
</g>
<g>
</g>
</svg>
